<svg xmlns="http://www.w3.org/2000/svg" height="1000" width="1000"><path d="M248 822.5c38.5 0 69.7-31.2 69.7-69.7 0-23.7-11.9-44.7-30-57.3l.1-.3c23.9-59.1 47.6-118.2 70.8-177.5.9-2.4 1.9-4.6 2.9-6.5 3.4.5 6.9.8 10.4.8 8.6 0 16.9-1.6 24.5-4.4 15.8 24.3 31.9 48.4 48.2 72.4-11.5 12.4-18.5 29-18.5 47.3 0 38.5 31.2 69.7 69.7 69.7s69.7-31.2 69.7-69.7c0-25-13.2-47-33-59.2l.2-.7c26.8-79.6 53.3-159.2 79.6-238.9.3-.9.6-1.7.9-2.5 2.1.2 4.3.3 6.5.3 13.5 0 26.2-3.9 36.8-10.5 30 30.3 60.1 60.5 90.5 90.4-6.5 10.6-10.2 23-10.2 36.3 0 38.5 31.2 69.7 69.7 69.7s69.7-31.2 69.7-69.7c0-25.4-13.6-47.6-33.9-59.8 27.3-81.1 54.3-162.3 81.2-243.5 2.3.2 4.6.4 7 .4 38.5 0 69.7-31.2 69.7-69.7S969 .2 930.5.2s-69.7 31.2-69.7 69.7c0 24.8 13 46.6 32.6 59l-.5 1.7c-26.8 79.9-53.5 159.8-79.9 239.9-.3 1-.6 1.8-1 2.7-1.8-.1-3.6-.2-5.5-.2-13.7 0-26.4 4-37.2 10.8-29.9-30.3-60.1-60.4-90.3-90.4 6.6-10.6 10.4-23.2 10.4-36.6 0-38.5-31.2-69.7-69.7-69.7S550 218.3 550 256.8c0 25.1 13.3 47.1 33.2 59.4l-.4 1.5c-25.8 76.2-51.4 152.4-76.4 228.8-1.4 4.3-2.7 8.3-4.4 11.7-2-.2-4.1-.3-6.2-.3-8.8 0-17.1 1.6-24.8 4.6-15.8-24.2-31.9-48.3-48.2-72.2 11.7-12.5 18.8-29.2 18.8-47.6 0-38.5-31.2-69.7-69.7-69.7s-69.7 31.2-69.7 69.7c0 23.6 11.8 44.5 29.7 57.1-24.8 61.3-49.3 122.6-73.7 184.1l-.2.4c-3.3-.5-6.6-.7-10.1-.7-38.5 0-69.7 31.2-69.7 69.7.1 38 31.3 69.2 69.8 69.2zm196.6 115.3c-124.2 0-248.4-.1-372.6.2-1.6 0-2.9-.1-4.1-.2V814.2h58.2v-62.5H67.9V628.3h58.2v-62.5H67.9V442.5h58.2V380H67.9V257h58.2v-62.5h-6.4c-1.1-.2-2.4-.3-4-.3-15.5.5-31 0-46.4.3h-1.4V70.8h58.2V8.4H7.3v.2H.2c0 327.5 0 655-.2 982.5 0 4.9 4 8.9 8.9 8.9 324.6-.2 649.2-.2 973.8-.2 1.3 0 2.6-.2 3.9 0 4.2.8 5-.7 5-4.9-.3-19-.1-38.1-.1-57.1H444.6z"/></svg>