<svg xmlns="http://www.w3.org/2000/svg" height="1000" width="1000"><path d="M502.7 0C227.2-1.9.5 218.8 0 499.4-.5 773.7 219.5 998.1 499.7 1000c275.6-1.3 496.8-220.9 500-494.9C1002.9 228.2 781.1 2 502.7 0zm1.8 966.3C243.6 967.7 35 761.9 33.4 501.3 31.8 244 239.2 35.1 498.3 33.3 756 31.4 964.9 239.9 966.7 500.5c1.7 253.4-207.7 464.4-462.2 465.8zm128.6-337c-5.8 1.9-9 1.6-12.7-3.5-12.3-17.1-25.1-34-38-50.7-3.7-4.8-4.5-8.7-1.9-14.6 10.9-25.8 9.3-51.4-5.6-75.2-33.1-52.8-109.1-51.3-140.6 2.5-2.6 4.4-4.1 9.1-11.1 7.7-18.5-3.7-37.1-7.1-55.7-10.2-5.2-.9-7.3-2.3-7-8.1.5-9.5-.5-19.2-4.4-27.8-3.1-6.9-1.4-9.8 4.9-13.3 53.1-29.4 106.2-59 159-89 7.4-4.2 11.6-4.4 18.1 2.4 24.8 25.9 64.9 30.9 96.5 13.4 31.8-17.6 48.5-54.4 40.4-89-11.2-47.9-58.5-75.4-104.7-60.6-46.2 14.7-69.6 64.7-50.5 109.8 3.6 8.6.8 10.9-5.6 14.5-52.5 29.1-104.9 58.4-157 88-7.4 4.2-10.9 3.8-16.6-3-27.8-33.3-77.7-38.2-112-11.6-34.5 26.8-42.5 76.1-17.3 111.4 19.5 27.3 46.7 39.1 79.9 34.2 30.9-4.6 52.3-22.6 63.7-51.6 2.7-6.8 4.8-9.6 12.9-7.7 16.3 3.8 32.8 6.6 49.4 8.7 7.9 1 8.3 4.2 7.4 10.7-6 40.1 17.7 78.6 56.1 90 35.5 10.6 65.1-.1 90.1-27.8 12.8 17.1 24.8 33.6 37.4 49.5 5.3 6.7 5.6 10-2 15.7-34.9 26.4-46.4 73.2-28.7 112.6 17.5 38.7 59.6 62 99.7 55.1 56.1-9.7 90.8-61.6 77.7-116-12.8-53.5-68.1-83.7-121.8-66.5zm-127.4-52.9c-26.3.1-47.6-20.7-47.9-46.5-.3-26.7 20.5-48 47.2-48.2 26.3-.2 47.2 20.1 47.9 46.5.7 26.1-20.9 48.2-47.2 48.2z"/></svg>