<svg xmlns="http://www.w3.org/2000/svg" height="1000" width="1000"><path d="M342.1 690.9c-3-1.8-5.6-4.4-8.2-6.8-67.9-62.4-96.9-139.4-80.7-230.3 18.5-104 99.5-182 203.7-199.6 9.1-1.5 9.8-5 9.8-12.3-.2-80.5-.1-160.9-.1-241.4h-9.7c-16.5 2.6-33.2 4.3-49.6 7.9-199.4 43-329.6 162-390.4 356.6-1.8 5.6-3.3 11.3-4.8 16.9-4.9 20.5-24.3 113.9-.6 227.4C40.2 734 108.6 833.6 214.9 909.4c5.5 3.9 7.9 3.7 11.5-2.4 39.1-68.3 78.4-136.5 117.9-204.5 3.1-5.3 3.2-8.3-2.2-11.6zM949 281.7c-2.9-6.1-5.1-7.1-11.2-3.5-67.6 40.3-135.3 80.4-203.1 120.4-5.3 3.1-6.8 5.8-3.8 11.2 1.7 3.1 2.7 6.6 3.8 10 28.5 87.7 16.1 169-42.6 240.3-67.1 81.6-176 109.8-275.4 74-8.6-3.1-11-.5-14.6 5.9-39.3 70.2-78.8 140.3-118.3 210.4l8.5 4.8c15.7 5.9 31.1 12.5 47.1 17.5 194.8 60.3 366.6 20.4 515-119.3 4.3-4 8.4-8.2 12.5-12.4 14.4-15.6 77.1-87.5 112.1-198 36.1-122.8 25.4-243.1-30-361.3zm-413.5-27.9c62.4 9.9 113.9 39.3 154 88.2 4.5 5.5 7.5 6 13.4 2.5 67.5-39.2 135.1-78.3 202.8-117 7.3-4.2 6.6-7.2 2.4-13-20.3-28.7-42.9-55.4-68.6-79.3C768.3 68.7 685 26.2 589.1 8.4c-16.8-3.1-33.7-5.3-50.6-7.9h-9.7v243.3c0 4.9-.7 8.8 6.7 10z"/></svg>