<svg xmlns="http://www.w3.org/2000/svg" height="1000" width="1000"><path d="M992.2 852.1c-37.8-29.8-75.8-59.3-113.8-88.9-3.1-2.4-6.3-5.2-10.7-3.2-4.6 2.1-5.2 6.3-5.2 10.9.1 15.5-.5 30.9.2 46.3.5 9.2-2.6 11.2-11.4 11.2-63.2-.4-126.5-.3-189.7-.3-170.7 0-341.4-.1-512.1.3-10.9 0-12.7-3.3-12.6-13.2.4-81.6.3-163.1.3-244.7 0-130.1 0-260.2-.2-390.3 0-6.7 2-8.7 8.5-8.5 16.2.5 32.3.2 48.5.3 4.5 0 8.7-.4 11.1-4.9 2.4-4.4-.2-7.5-2.7-10.7-30-38.6-60-77.2-90.1-115.6-6.6-8.4-11.9-8.5-18.3-.4L3.8 155.9c-2.4 3.1-5.1 6.4-3 10.7 2.2 4.6 6.3 5.3 10.9 5.3 14.4-.1 28.7 0 43.1 0 14.1 0 14.1 0 14.1 13.8l-.1 162.8.1 507.8c0 26.6 12.8 40.2 39.2 40.3 123.3.1 246.5 0 369.8 0h36.7c112.8 0 225.7.1 338.5 0 7.3 0 10.1 1.6 9.8 9.4-.6 15.4-.1 30.9-.2 46.4 0 4.8-.2 9.5 4.8 12.2 5.4 2.9 8.8-1 12.4-3.8 37.4-29.2 74.7-58.5 112-87.8 10.6-8.6 11-12.5.3-20.9zM827.4 483.6c-5.5 3.9-9.3 6.5-13 9.2C764 529 713.5 565.2 663.2 601.7c-5.8 4.2-10.9 5.1-17.8 3.3-34.7-9.1-69.5-17.5-104.2-26.5-7.6-2-12.1-.3-17.1 6.1-33.9 43.7-68.5 86.9-102.4 130.5-6 7.7-9 9.1-15.9.5-40.7-50.7-82.1-100.8-122.9-151.4-5.6-6.9-8.5-7.8-15.2-1.1-29 28.9-58.5 57.3-88.2 85.5-5.2 4.9-7.2 9.8-7.1 16.8.3 35.2.1 70.4.2 105.6 0 21.9.1 21.9 21.6 21.9 207.3 0 414.5-.1 621.8.3 9.8 0 11.8-2.5 11.6-11.9-.5-38.1-.1-76.2-.1-114.2-.1-60.3-.1-120.6-.1-183.5zm-655.1-62.1c.2 41 .1 81.9 0 122.9v38.8c5.6-1.7 7.7-5.2 10.4-7.9 28-27.9 56.2-55.6 83.7-84 7.5-7.8 11.2-7.3 17.9.9l122.5 147.6c5.9 7.2 8.5 6.4 13.8-.4 29.1-37.5 58.9-74.3 87.7-112 6.6-8.6 12.6-10.2 22.5-7.8 38 9.1 76.3 17.2 114.3 26.2 6.9 1.6 12 .8 17.8-3.5 52.4-39.1 105-77.9 157.7-116.6 5.3-3.9 6.9-8.1 6.9-14.4-.2-42-.1-84.1-.1-126.1v-40.7c-5.2.5-7.4 3.6-10 5.7-51.7 41.2-103.3 82.5-154.8 124-5.4 4.4-9.9 5.1-16.5 3.4-39.5-10.3-79.3-19.9-118.9-30.1-7.2-1.8-11.9-.9-16 5.8-4.9 7.9-11 15-16.7 22.5-25 33.3-50.1 66.6-74.9 100.1-4.2 5.6-7.2 7.5-11.5.5-1.7-2.7-4.1-5-6.1-7.5-40-49.9-80-99.8-119.7-149.9-4.7-6-7.4-7.9-13.8-1.4-29.9 30.6-60.3 60.7-90.6 90.8-4 3.7-5.7 7.6-5.6 13.1z"/></svg>